<?xml version="1.0" standalone="no"?>
<!DOCTYPE svg PUBLIC "-//W3C//DTD SVG 20010904//EN"
 "http://www.w3.org/TR/2001/REC-SVG-20010904/DTD/svg10.dtd">
<svg version="1.0" xmlns="http://www.w3.org/2000/svg"
 width="1800.000000pt" height="1800.000000pt" viewBox="0 0 1800.000000 1800.000000"
 preserveAspectRatio="xMidYMid meet">
<metadata>
Created by potrace 1.14, written by Peter Selinger 2001-2017
</metadata>
<g transform="translate(0.000000,1800.000000) scale(0.100000,-0.100000)"
fill="#000000" stroke="none">
<path d="M10159 14236 c-2 -2 -47 -7 -99 -10 -52 -4 -106 -8 -120 -10 -14 -2
-50 -7 -80 -11 -106 -12 -136 -17 -265 -41 -166 -32 -176 -34 -245 -53 -25 -7
-52 -14 -60 -16 -136 -27 -470 -144 -680 -237 -107 -48 -349 -173 -443 -229
-99 -60 -316 -203 -388 -257 -69 -52 -144 -111 -170 -134 -15 -13 -46 -39 -69
-58 -183 -150 -472 -455 -633 -666 l-46 -61 -153 77 c-255 127 -544 219 -773
245 -27 3 -59 8 -70 10 -32 7 -234 18 -310 18 -81 -1 -270 -12 -300 -18 -11
-2 -40 -7 -65 -10 -25 -3 -56 -7 -70 -10 -14 -3 -41 -8 -60 -11 -19 -3 -42 -7
-50 -10 -8 -3 -26 -8 -40 -10 -49 -9 -232 -66 -323 -100 -255 -97 -565 -282
-757 -450 -313 -275 -546 -597 -702 -969 -47 -113 -121 -340 -133 -411 -19
-109 -20 -111 -78 -118 -28 -4 -97 -16 -152 -27 -55 -11 -111 -23 -125 -25
-70 -13 -269 -71 -378 -110 -559 -198 -1040 -523 -1453 -979 -233 -259 -456
-618 -614 -990 -45 -105 -133 -373 -149 -455 -3 -14 -12 -52 -20 -85 -15 -65
-18 -76 -39 -205 -15 -85 -22 -137 -37 -280 -8 -79 -5 -580 4 -640 3 -19 8
-60 11 -90 26 -235 103 -543 202 -805 49 -131 168 -382 229 -485 97 -163 115
-191 176 -277 493 -694 1202 -1180 2014 -1381 65 -17 135 -33 154 -36 19 -3
46 -8 60 -11 40 -9 218 -33 300 -42 98 -10 10799 -10 10910 0 47 4 96 10 110
12 14 2 49 7 79 10 30 4 63 9 75 11 11 2 38 6 61 9 259 37 631 142 919 259
593 241 1110 602 1561 1088 62 67 70 76 145 168 25 30 47 57 50 60 3 3 37 48
76 100 253 340 444 691 592 1090 66 179 153 484 178 630 3 14 11 57 19 95 7
39 16 93 20 120 3 28 8 64 10 80 23 153 30 282 30 550 0 235 -9 454 -20 487
-2 7 -6 42 -10 77 -3 36 -7 67 -9 70 -2 3 -7 30 -10 60 -4 30 -9 64 -11 75 -3
12 -7 32 -9 46 -3 14 -8 39 -11 55 -24 132 -105 424 -156 567 -196 550 -486
1038 -869 1462 -113 124 -303 307 -440 423 -168 141 -456 338 -663 452 -72 40
-313 161 -320 161 -3 0 -34 13 -69 29 -172 79 -604 220 -725 236 -11 2 -30 6
-42 10 -11 3 -33 8 -48 11 -16 3 -59 11 -98 19 -38 7 -97 17 -130 21 -33 3
-62 8 -65 9 -5 3 -36 7 -175 21 -16 1 -35 3 -42 3 -6 1 -21 17 -34 37 -24 39
-204 272 -223 289 -6 6 -36 39 -66 75 -108 129 -409 419 -529 510 -18 14 -38
30 -44 35 -7 6 -48 38 -92 71 -465 350 -1022 615 -1585 753 -91 22 -178 43
-195 46 -16 3 -43 7 -60 10 -16 3 -52 10 -80 15 -27 5 -75 12 -105 16 -30 4
-64 8 -75 9 -11 2 -47 6 -80 10 -33 3 -76 9 -95 12 -39 6 -646 14 -651 9z
m546 -657 c124 -11 194 -18 235 -25 78 -12 157 -24 185 -30 17 -3 43 -7 58
-10 24 -5 232 -56 277 -68 177 -50 417 -140 586 -221 618 -294 1144 -751 1533
-1330 58 -85 77 -107 129 -143 52 -38 96 -48 247 -57 55 -3 111 -8 125 -10 14
-2 50 -7 80 -10 74 -8 187 -27 305 -51 11 -2 29 -6 40 -8 16 -3 164 -42 235
-61 86 -24 353 -122 440 -162 180 -84 335 -164 392 -204 14 -11 28 -19 31 -19
8 0 151 -95 232 -154 540 -391 968 -927 1220 -1526 31 -74 60 -144 65 -155 10
-23 80 -242 104 -325 16 -57 50 -209 61 -270 3 -19 8 -42 10 -50 2 -8 7 -35
10 -60 3 -25 8 -63 11 -84 7 -41 9 -61 21 -191 10 -105 10 -517 0 -624 -13
-130 -45 -338 -68 -441 -6 -25 -12 -53 -14 -64 -75 -362 -282 -841 -518 -1196
-47 -70 -188 -262 -212 -286 -5 -6 -39 -46 -75 -88 -174 -206 -473 -469 -713
-629 -236 -157 -419 -256 -653 -353 -145 -60 -459 -161 -559 -180 -11 -2 -51
-10 -90 -18 -65 -14 -204 -37 -300 -50 -22 -3 -83 -9 -135 -13 -121 -10
-10677 -11 -10785 -1 -68 7 -305 46 -370 62 -149 35 -261 70 -393 122 -151 60
-369 171 -490 251 -53 35 -99 63 -103 63 -4 0 -9 3 -11 8 -2 4 -41 36 -88 72
-116 88 -137 107 -281 250 -356 355 -608 792 -734 1272 -19 73 -37 149 -40
168 -3 19 -8 42 -10 50 -2 8 -7 38 -11 65 -3 28 -8 58 -10 68 -19 102 -26 487
-11 647 15 162 48 339 96 505 224 780 772 1429 1503 1779 136 65 348 145 453
172 85 21 228 54 255 59 19 3 46 7 60 10 14 2 43 7 65 9 22 3 60 7 85 10 25 3
84 8 132 11 146 9 243 67 297 178 31 62 34 77 46 192 9 94 28 200 51 281 8 28
16 60 18 70 9 43 70 196 118 293 117 239 306 476 515 644 237 191 576 350 838
391 20 4 40 8 44 10 31 19 434 29 556 13 156 -19 389 -79 457 -117 10 -6 23
-10 29 -10 6 0 60 -24 119 -54 99 -49 225 -128 353 -221 105 -75 254 -82 361
-16 46 29 86 75 153 176 440 659 1064 1161 1788 1440 144 56 379 130 473 150
9 2 49 10 87 19 87 18 234 43 300 51 28 3 59 8 70 10 11 2 63 7 115 10 52 4
96 8 98 10 6 6 423 1 507 -6z"/>
<path d="M9848 10730 c-110 -34 -191 -117 -224 -229 -14 -48 -16 -162 -16
-987 l0 -934 -23 0 c-15 0 -36 17 -64 53 -125 163 -350 324 -583 416 -80 32
-288 95 -348 105 -19 3 -62 10 -95 16 -200 34 -515 34 -750 1 -241 -34 -475
-109 -680 -217 -79 -41 -248 -149 -276 -176 -8 -7 -27 -24 -44 -36 -74 -57
-188 -177 -289 -302 -106 -133 -264 -460 -301 -623 -32 -140 -46 -209 -50
-247 -3 -25 -8 -57 -11 -71 -20 -103 -20 -415 1 -594 41 -347 187 -707 393
-969 248 -314 615 -543 1034 -646 68 -16 140 -32 162 -36 21 -3 47 -7 58 -9
11 -2 49 -7 86 -10 37 -4 83 -9 102 -11 59 -6 322 -6 373 0 26 3 68 8 95 12
82 9 114 15 226 40 370 82 694 264 889 499 32 38 57 59 71 59 20 0 21 -4 23
-152 2 -185 12 -237 60 -309 149 -224 477 -199 592 46 l26 56 0 2510 0 2510
-28 55 c-47 93 -102 142 -197 177 -68 25 -138 26 -212 3z m-1513 -2104 c370
-17 690 -151 925 -386 151 -150 253 -322 319 -535 50 -166 65 -269 65 -475 1
-203 -5 -270 -35 -399 -94 -406 -320 -711 -655 -883 -77 -40 -216 -94 -263
-103 -9 -2 -36 -8 -61 -15 -25 -7 -56 -14 -70 -16 -14 -2 -38 -6 -55 -9 -141
-22 -391 -25 -530 -6 -383 54 -675 215 -882 486 -109 144 -194 329 -243 528
-42 169 -57 434 -36 607 73 582 402 988 931 1146 44 14 94 27 110 29 17 3 41
7 55 10 67 12 92 15 180 21 52 4 96 8 98 9 2 2 11 1 20 -1 9 -1 67 -5 127 -8z"/>
<path d="M11966 10733 c-59 -17 -111 -50 -152 -94 -91 -100 -93 -111 -91 -647
1 -249 -1 -460 -4 -470 -5 -15 -32 -17 -301 -17 l-295 -1 -59 -29 c-105 -54
-163 -162 -151 -280 10 -95 67 -175 160 -222 49 -24 50 -24 343 -25 182 0 296
-4 300 -10 3 -5 8 -586 10 -1291 2 -705 6 -1336 9 -1402 10 -251 75 -469 187
-634 45 -66 153 -171 224 -218 120 -79 290 -136 469 -158 91 -11 299 -6 385 9
212 38 391 141 452 261 26 50 35 149 18 201 -31 96 -104 170 -195 196 -67 20
-122 15 -208 -16 -236 -85 -408 -69 -534 49 -57 53 -112 179 -130 293 -6 41
-6 671 0 2292 l2 425 416 2 417 1 55 27 c226 106 208 438 -27 512 -56 18 -92
20 -458 19 -219 -1 -399 1 -399 4 -1 3 -2 221 -4 485 -2 519 -2 514 -58 600
-79 120 -242 179 -381 138z"/>
<path d="M3527 9244 c-1 -1 -56 -4 -122 -8 -151 -8 -185 -12 -317 -37 -674
-124 -1178 -527 -1416 -1134 -33 -85 -96 -296 -105 -355 -3 -19 -11 -64 -16
-100 -33 -204 -36 -636 -5 -765 2 -11 6 -33 8 -50 2 -16 6 -41 10 -55 3 -14 8
-36 10 -50 24 -141 100 -361 178 -514 216 -426 573 -727 1038 -875 111 -35
170 -51 210 -56 16 -2 37 -6 47 -9 10 -3 36 -8 58 -11 23 -3 50 -7 60 -9 112
-21 566 -29 710 -12 57 7 236 39 280 50 6 1 26 6 45 10 19 4 82 24 140 43 422
140 738 399 924 756 36 69 94 207 102 242 2 6 11 39 22 75 29 99 25 199 -12
274 -61 125 -164 189 -301 190 -65 0 -90 -4 -135 -25 -106 -49 -147 -101 -205
-257 -115 -310 -275 -507 -505 -622 -107 -53 -237 -93 -345 -106 -22 -3 -63
-8 -91 -13 -58 -9 -295 -7 -399 4 -198 19 -422 90 -583 184 -222 129 -405 364
-497 636 -29 88 -30 89 -50 190 -30 152 -35 216 -35 410 0 144 1 166 20 295
44 295 170 559 354 744 91 90 97 95 179 149 252 167 629 250 977 215 404 -41
723 -275 935 -685 79 -154 159 -214 293 -219 97 -4 165 21 231 85 71 69 95
127 95 226 -1 67 -6 93 -33 160 -115 284 -311 523 -576 699 -221 148 -546 267
-820 302 -22 3 -46 7 -52 9 -15 5 -301 23 -306 19z"/>
<path d="M14427 6109 c-151 -35 -286 -180 -315 -337 -45 -250 146 -488 400
-498 218 -8 411 156 436 372 21 184 -78 360 -245 436 -56 25 -83 31 -153 33
-47 2 -102 -1 -123 -6z"/>
</g>
</svg>
